HIERARCHY
ROOT Hips
{
	OFFSET 0.000000 0.000000 0.000000
	CHANNELS 6 Xposition Yposition Zposition Zrotation Yrotation Xrotation 
	JOINT LeftUpLeg_virtual
	{
		OFFSET 0.000000 0.000000 0.000000
		CHANNELS 3 Zrotation Yrotation Xrotation
		JOINT LeftUpLeg
		{
			OFFSET 10.205400 -3.823500 0.155100
			CHANNELS 3 Zrotation Yrotation Xrotation
			JOINT LeftLeg
			{
				OFFSET 0.708757 -12.982077 0.567790
				CHANNELS 3 Zrotation Yrotation Xrotation
				JOINT LeftFoot
				{
					OFFSET -0.708756 -10.717838 -2.184338
					CHANNELS 3 Zrotation Yrotation Xrotation
					JOINT LeftToeBase
					{
						OFFSET 0.108149 -7.191104 7.560241
						CHANNELS 3 Zrotation Yrotation Xrotation
						End Site
						{
							OFFSET 0.000000 0.000000 0.000000
						}
					}
				}
			}
		}
	}
	JOINT RightUpLeg_virtual
	{
		OFFSET 0.000000 0.000000 0.000000
		CHANNELS 3 Zrotation Yrotation Xrotation
		JOINT RightUpLeg
		{
			OFFSET -10.205400 -3.823500 0.005500
			CHANNELS 3 Zrotation Yrotation Xrotation
			JOINT RightLeg
			{
				OFFSET -0.708756 -12.982134 0.610632
				CHANNELS 3 Zrotation Yrotation Xrotation
				JOINT RightFoot
				{
					OFFSET 0.708754 -10.717769 -1.945823
					CHANNELS 3 Zrotation Yrotation Xrotation
					JOINT RightToeBase
					{
						OFFSET -0.108140 -7.191069 7.372968
						CHANNELS 3 Zrotation Yrotation Xrotation
						End Site
						{
							OFFSET 0.000000 0.000000 0.000000
						}
					}
				}
			}
		}
	}
	JOINT Spine_virtual
	{
		OFFSET 0.000000 0.000000 0.000000
		CHANNELS 3 Zrotation Yrotation Xrotation
		JOINT Spine
		{
			OFFSET 0.000000 6.876099 0.125700
			CHANNELS 3 Zrotation Yrotation Xrotation
			JOINT Spine1
			{
				OFFSET 0.000000 8.022060 0.146608
				CHANNELS 3 Zrotation Yrotation Xrotation
				JOINT Spine2
				{
					OFFSET 0.000000 9.168068 0.167552
					CHANNELS 3 Zrotation Yrotation Xrotation
					JOINT Neck_virtual
					{
						OFFSET 0.000000 0.000000 0.000000
						CHANNELS 3 Zrotation Yrotation Xrotation
						JOINT Neck
						{
							OFFSET 0.000000 10.314075 0.188496
							CHANNELS 3 Zrotation Yrotation Xrotation
							JOINT Head
							{
								OFFSET 0.000000 7.643700 -2.377400
								CHANNELS 3 Zrotation Yrotation Xrotation
								End Site
								{
									OFFSET 0.000000 0.000000 0.000000
								}
							}
						}
					}
					JOINT LeftShoulder_virtual
					{
						OFFSET 0.000000 0.000000 0.000000
						CHANNELS 3 Zrotation Yrotation Xrotation
						JOINT LeftShoulder
						{
							OFFSET 4.392200 8.824978 0.174984
							CHANNELS 3 Zrotation Yrotation Xrotation
							JOINT LeftArm
							{
								OFFSET 8.771219 -2.981674 -0.026999
								CHANNELS 3 Zrotation Yrotation Xrotation
								JOINT LeftForeArm
								{
									OFFSET 8.512804 0.000000 -0.000000
									CHANNELS 3 Zrotation Yrotation Xrotation
									JOINT LeftHand
									{
										OFFSET 18.484802 0.000000 -0.000000
										CHANNELS 3 Zrotation Yrotation Xrotation
										End Site
										{
											OFFSET 0.000000 0.000000 0.000000
										}
									}
								}
							}
						}
					}
					JOINT RightShoulder_virtual
					{
						OFFSET 0.000000 0.000000 0.000000
						CHANNELS 3 Zrotation Yrotation Xrotation
						JOINT RightShoulder
						{
							OFFSET -4.392200 8.824993 0.141379
							CHANNELS 3 Zrotation Yrotation Xrotation
							JOINT RightArm
							{
								OFFSET -8.771282 -2.981682 -0.094208
								CHANNELS 3 Zrotation Yrotation Xrotation
								JOINT RightForeArm
								{
									OFFSET -8.494598 0.000000 0.000000
									CHANNELS 3 Zrotation Yrotation Xrotation
									JOINT RightHand
									{
										OFFSET -18.483803 0.000000 0.000001
										CHANNELS 3 Zrotation Yrotation Xrotation
										End Site
										{
											OFFSET 0.000000 0.000000 0.000000
										}
									}
								}
							}
						}
					}
				}
			}
		}
	}
}
MOTION
Frames: 5
Frame Time: 0.033333
9.320807 36.189320 1.866198 179.782136 -25.443956 -179.473616 -2.972604 -4.008629 15.235761 1.740193 -5.328196 -13.139606 -0.449368 3.935245 13.947378 9.442398 3.429545 6.528533 0.000000 0.000000 0.000000 2.773107 -2.897186 17.249732 -2.992696 3.660771 -17.045130 -2.766849 7.332225 22.010155 12.471501 0.597494 3.831924 0.000000 0.000000 0.000000 1.019017 0.143004 -5.910636 1.210325 -10.193152 -6.869318 4.867797 -1.929182 2.983965 0.010817 0.120337 0.046875 4.458860 0.419913 8.430614 0.595906 -4.555952 38.105666 0.000000 0.000000 0.000000 6.781069 1.272975 3.224750 -33.092550 -6.034752 -6.709446 83.749143 77.305085 72.104996 -169.409305 -33.192001 -178.304889 0.000000 0.000000 0.000000 0.768430 2.896323 2.128260 23.523277 41.060877 8.568401 100.497436 -56.746598 -143.522574 -176.995514 53.091252 -163.843712 0.000000 0.000000 0.000000 
9.365048 36.179611 2.051584 179.706717 -25.326975 -179.375261 -2.933838 -3.737287 15.476310 1.615938 -5.579552 -13.371199 -0.742937 3.723564 14.143413 10.296970 3.387811 6.730570 0.000000 0.000000 0.000000 2.887100 -2.803614 17.470118 -3.131084 3.636134 -17.119632 -2.778982 7.052411 21.764481 12.643082 0.691544 3.539291 0.000000 0.000000 0.000000 1.041937 0.547344 -5.336157 1.051824 -10.195078 -6.876054 4.903056 -1.864003 2.967961 0.005843 0.108870 0.063196 4.550637 0.555199 8.622765 0.716237 -4.811715 38.066618 0.000000 0.000000 0.000000 6.837313 1.516638 3.376281 -33.362677 -5.586420 -6.725649 84.536022 77.692951 73.243479 -169.477142 -33.375764 -178.143368 0.000000 0.000000 0.000000 0.893844 3.156882 2.410124 23.250579 40.807501 8.397309 100.584535 -56.336753 -143.851229 -176.141850 54.389377 -162.942659 0.000000 0.000000 0.000000 
9.389609 36.166748 2.260282 179.851257 -25.298602 -179.444902 -2.678337 -3.454389 15.544136 1.584138 -5.754637 -13.842948 -0.764479 4.276189 14.217071 10.023881 3.369031 6.590068 0.000000 0.000000 0.000000 3.017144 -2.392589 17.565775 -3.241738 3.831003 -17.503420 -2.861189 6.927989 21.802997 12.513599 0.716297 3.556895 0.000000 0.000000 0.000000 1.164791 0.723617 -4.500986 0.860996 -10.223442 -7.031308 5.033954 -1.747041 2.655517 -0.016351 0.065980 0.073140 4.602769 0.777900 8.459250 0.780630 -5.033996 37.696330 0.000000 0.000000 0.000000 6.901020 1.884877 3.316093 -33.534419 -5.449016 -6.474038 85.101206 78.724023 74.013501 -169.575470 -33.831641 -178.030383 0.000000 0.000000 0.000000 0.977175 3.499270 2.396825 23.458244 40.863888 8.962474 101.535167 -56.395417 -145.177501 -175.175747 55.801539 -161.772853 0.000000 0.000000 0.000000 
9.407299 36.157631 2.413676 179.917729 -25.138441 -179.489257 -2.554145 -3.215474 15.759951 1.537229 -5.921002 -14.361345 -0.660568 4.863663 14.322155 9.875281 3.286083 6.490824 0.000000 0.000000 0.000000 3.154672 -2.068638 17.863402 -3.428633 3.968845 -18.017605 -2.931027 6.722616 21.753791 12.418198 0.752019 3.515468 0.000000 0.000000 0.000000 1.189520 0.925802 -3.568883 0.477197 -10.290762 -7.177264 5.211624 -1.534028 2.115298 -0.025046 0.070707 0.048993 4.743312 0.993508 8.016478 0.819557 -5.409871 37.196578 0.000000 0.000000 0.000000 7.044463 2.059808 3.037214 -33.612450 -5.960187 -6.043473 82.956356 79.338473 71.959055 -169.588966 -35.103423 -177.736617 0.000000 0.000000 0.000000 1.171305 3.753494 2.090033 24.080196 40.771476 9.955351 103.108946 -56.556234 -146.888054 -174.368336 56.494656 -160.729473 0.000000 0.000000 0.000000 
9.426052 36.159332 2.561025 179.909300 -25.025931 -179.541371 -2.558468 -3.006601 16.037694 1.581825 -6.049104 -14.914724 -0.630250 5.154856 14.375170 9.927280 3.195781 6.320031 0.000000 0.000000 0.000000 3.244197 -1.829801 18.262978 -3.631636 4.021586 -18.440054 -3.041372 6.621474 21.568962 12.221625 0.799141 3.392471 0.000000 0.000000 0.000000 1.134152 1.014029 -2.616372 -0.029134 -10.719298 -7.198073 5.441418 -1.426018 1.504059 0.010555 0.039512 0.080618 4.891674 1.140447 7.389458 0.764585 -5.637561 36.540692 0.000000 0.000000 0.000000 7.242149 2.234389 2.470017 -33.644781 -6.714936 -5.379673 76.691297 79.436883 65.902303 -169.580278 -36.973904 -177.373838 0.000000 0.000000 0.000000 1.401215 3.936734 1.603578 24.955594 40.937169 11.011196 104.404038 -56.411847 -148.451020 -173.862930 56.148646 -160.071466 0.000000 0.000000 0.000000 
